<svg width="16" height="16" viewBox="0 0 16 16" fill="none" xmlns="http://www.w3.org/2000/svg">
<g id="Group">
<g id="Group_2">
<path id="Path" fill-rule="evenodd" clip-rule="evenodd" d="M8 14V14C4.686 14 2 11.314 2 8V8C2 4.686 4.686 2 8 2V2C11.314 2 14 4.686 14 8V8C14 11.314 11.314 14 8 14Z" stroke="#1980DF" stroke-linecap="round" stroke-linejoin="round"/>
<path id="Path_2" d="M8.00008 8.83326V8.66659C8.00008 8.12192 8.33675 7.82659 8.67408 7.59992C9.00341 7.37792 9.33341 7.08859 9.33341 6.55526C9.33341 5.81859 8.73675 5.22192 8.00008 5.22192C7.26341 5.22192 6.66675 5.81859 6.66675 6.55526" stroke="#1980DF" stroke-linecap="round" stroke-linejoin="round"/>
<path id="Path_3" d="M7.99942 10.6667C7.90742 10.6667 7.83275 10.7413 7.83342 10.8333C7.83342 10.9253 7.90808 11 8.00008 11C8.09208 11 8.16675 10.9253 8.16675 10.8333C8.16675 10.7413 8.09208 10.6667 7.99942 10.6667" stroke="#1980DF" stroke-linecap="round" stroke-linejoin="round"/>
</g>
</g>
</svg>
